<svg width="48" height="49" viewBox="0 0 48 49" fill="none" xmlns="http://www.w3.org/2000/svg">
<path opacity="0.3" fill-rule="evenodd" clip-rule="evenodd" d="M24 44.5C35.0457 44.5 44 35.5457 44 24.5C44 13.4543 35.0457 4.5 24 4.5C12.9543 4.5 4 13.4543 4 24.5C4 35.5457 12.9543 44.5 24 44.5Z" fill="white"/>
<path fill-rule="evenodd" clip-rule="evenodd" d="M26 14.5C26 13.3954 25.1046 12.5 24 12.5C22.8954 12.5 22 13.3954 22 14.5V22.5H14C12.8954 22.5 12 23.3954 12 24.5C12 25.6046 12.8954 26.5 14 26.5H22V34.5C22 35.6046 22.8954 36.5 24 36.5C25.1046 36.5 26 35.6046 26 34.5V26.5H34C35.1046 26.5 36 25.6046 36 24.5C36 23.3954 35.1046 22.5 34 22.5H26V14.5Z" fill="white"/>
</svg>
